# xmcd
#
# Track frame offsets: 
#        210
#        20266
#        39073
#        61513
#        79006
#        110037
#        134046
#        148814
#        187211
#        207389
#        225440
#        241592
#
# Disc length: 3483 seconds
#
# Revision: 0
# Processed by: cddbd v1.5.1PL0 Copyright (c) Steve Scherf et al.
# Submitted via: ExactAudioCopy v0.95a3
#
DISCID=9d0d990c
DTITLE=Son House - "Live" At Gaslight Cafe, N.Y.C., January 3, 1965
DYEAR=1965
DGENRE=Blues
TTITLE0=Pony Blues
TTITLE1=Motherless Children
TTITLE2=Preachin' The Blues
TTITLE3=This Little Light Of Mine
TTITLE4=Son's Blues
TTITLE5=Death Letter Blues (incomplete)
TTITLE6=I Shall Not Be Moved
TTITLE7=Levee Camp Moan
TTITLE8=Empire State Express
TTITLE9=Pearline
TTITLE10=Yonder Comes My Mother (When The Roll Is Called Up Yonder)
TTITLE11=Louise McGhee (incomplete)
EXTD=
EXTT0=
EXTT1=
EXTT2=
EXTT3=
EXTT4=
EXTT5=
EXTT6=
EXTT7=
EXTT8=
EXTT9=
EXTT10=
EXTT11=
PLAYORDER=
